<svg width="59" height="59" viewBox="0 0 59 59" fill="none" xmlns="http://www.w3.org/2000/svg">
<circle cx="29.2524" cy="29.5993" r="28.8" fill="#C3F0FF"/>
<path d="M26.8652 17.3344H31.3097C32.0124 17.3344 32.6906 17.5935 33.2144 18.062C33.7382 18.5305 34.0709 19.1757 34.149 19.8741H36.389C36.7642 19.8741 37.1358 19.948 37.4824 20.0916C37.8291 20.2352 38.144 20.4456 38.4093 20.7109C38.6746 20.9762 38.8851 21.2912 39.0287 21.6379C39.1723 21.9845 39.2462 22.356 39.2462 22.7312V29.3954C37.4953 28.665 35.5462 28.56 33.7269 29.0982C31.9077 29.6364 30.3294 30.7848 29.2577 32.3502C28.1859 33.9157 27.6862 35.8025 27.8425 37.6932C27.9988 39.584 28.8017 41.3631 30.116 42.7312H21.7859C21.0281 42.7312 20.3014 42.4302 19.7655 41.8944C19.2297 41.3586 18.9287 40.6319 18.9287 39.8741V22.7312C18.9287 21.9735 19.2297 21.2468 19.7655 20.7109C20.3014 20.1751 21.0281 19.8741 21.7859 19.8741H24.0259C24.1039 19.1757 24.4367 18.5305 24.9605 18.062C25.4843 17.5935 26.1624 17.3344 26.8652 17.3344ZM31.3097 19.2392H26.8652C26.6126 19.2392 26.3704 19.3395 26.1918 19.5181C26.0132 19.6967 25.9128 19.939 25.9128 20.1916C25.9128 20.4441 26.0132 20.6864 26.1918 20.865C26.3704 21.0436 26.6126 21.1439 26.8652 21.1439H31.3097C31.5623 21.1439 31.8045 21.0436 31.9831 20.865C32.1617 20.6864 32.262 20.4441 32.262 20.1916C32.262 19.939 32.1617 19.6967 31.9831 19.5181C31.8045 19.3395 31.5623 19.2392 31.3097 19.2392Z" fill="#275CBE"/>
<g clip-path="url(#clip0_153_250)">
<path fill-rule="evenodd" clip-rule="evenodd" d="M28.9927 37.0024C28.9927 35.1459 29.7302 33.3654 31.0429 32.0526C32.3557 30.7399 34.1362 30.0024 35.9927 30.0024C37.8492 30.0024 39.6297 30.7399 40.9424 32.0526C42.2552 33.3654 42.9927 35.1459 42.9927 37.0024C42.9927 38.8589 42.2552 40.6394 40.9424 41.9521C39.6297 43.2649 37.8492 44.0024 35.9927 44.0024C34.1362 44.0024 32.3557 43.2649 31.0429 41.9521C29.7302 40.6394 28.9927 38.8589 28.9927 37.0024V37.0024ZM35.5932 39.9984L39.6233 34.9602L38.8953 34.3778L35.4588 38.6721L33.0247 36.644L32.4273 37.3608L35.5932 39.9993V39.9984Z" fill="#275CBE"/>
</g>
<defs>
<clipPath id="clip0_153_250">
<rect width="14" height="14" fill="white" transform="translate(28.9927 30.0024)"/>
</clipPath>
</defs>
</svg>
