<svg width="59" height="59" viewBox="0 0 59 59" fill="none" xmlns="http://www.w3.org/2000/svg">
<circle cx="29.5744" cy="29.5993" r="28.8" fill="#C3F0FF"/>
<g clip-path="url(#clip0_153_261)">
<path d="M19.3253 28.6703C19.6652 28.6707 19.9921 28.8009 20.2392 29.0341C20.4863 29.2674 20.635 29.5863 20.6549 29.9255C20.6748 30.2648 20.5644 30.5989 20.3463 30.8595C20.1282 31.1201 19.8188 31.2875 19.4813 31.3277L19.3253 31.337H17.992C17.6522 31.3366 17.3253 31.2065 17.0782 30.9732C16.8311 30.7399 16.6824 30.4211 16.6624 30.0818C16.6425 29.7426 16.7529 29.4085 16.971 29.1479C17.1892 28.8873 17.4986 28.7198 17.836 28.6797L17.992 28.6703H19.3253ZM29.992 16.6703C30.3186 16.6704 30.6338 16.7903 30.8778 17.0073C31.1219 17.2243 31.2778 17.5233 31.316 17.8477L31.3253 18.0037V19.337C31.325 19.6769 31.1948 20.0037 30.9615 20.2508C30.7283 20.498 30.4094 20.6467 30.0702 20.6666C29.7309 20.6865 29.3968 20.5761 29.1362 20.358C28.8756 20.1399 28.7082 19.8305 28.668 19.493L28.6587 19.337V18.0037C28.6587 17.6501 28.7992 17.3109 29.0492 17.0609C29.2993 16.8108 29.6384 16.6703 29.992 16.6703ZM41.992 28.6703C42.3319 28.6707 42.6587 28.8009 42.9058 29.0341C43.153 29.2674 43.3017 29.5863 43.3216 29.9255C43.3415 30.2648 43.2311 30.5989 43.013 30.8595C42.7949 31.1201 42.4855 31.2875 42.148 31.3277L41.992 31.337H40.6587C40.3188 31.3366 39.992 31.2065 39.7449 30.9732C39.4977 30.7399 39.349 30.4211 39.3291 30.0818C39.3092 29.7426 39.4196 29.4085 39.6377 29.1479C39.8558 28.8873 40.1652 28.7198 40.5027 28.6797L40.6587 28.6703H41.992ZM20.516 20.5277C20.7456 20.2981 21.0511 20.1602 21.3751 20.1398C21.6991 20.1195 22.0195 20.218 22.276 20.417L22.4013 20.5277L23.3347 21.461C23.5738 21.701 23.7126 22.0229 23.723 22.3615C23.7333 22.7001 23.6144 23.03 23.3903 23.2841C23.1663 23.5381 22.8539 23.6974 22.5167 23.7295C22.1795 23.7617 21.8427 23.6642 21.5747 23.457L21.4493 23.3463L20.516 22.413C20.2661 22.163 20.1256 21.8239 20.1256 21.4703C20.1256 21.1168 20.2661 20.7777 20.516 20.5277ZM37.5827 20.5277C37.8226 20.2886 38.1446 20.1497 38.4832 20.1394C38.8218 20.129 39.1516 20.248 39.4057 20.472C39.6598 20.6961 39.8191 21.0084 39.8512 21.3456C39.8833 21.6829 39.7859 22.0197 39.5787 22.2877L39.468 22.413L38.5347 23.3463C38.2947 23.5855 37.9728 23.7243 37.6342 23.7347C37.2956 23.745 36.9657 23.6261 36.7116 23.402C36.4576 23.178 36.2983 22.8656 36.2661 22.5284C36.234 22.1912 36.3315 21.8543 36.5387 21.5863L36.6493 21.461L37.5827 20.5277ZM32.6587 38.0037C33.0123 38.0037 33.3514 38.1442 33.6015 38.3942C33.8515 38.6443 33.992 38.9834 33.992 39.337C33.992 40.3979 33.5706 41.4153 32.8204 42.1654C32.0703 42.9156 31.0529 43.337 29.992 43.337C28.9311 43.337 27.9137 42.9156 27.1636 42.1654C26.4134 41.4153 25.992 40.3979 25.992 39.337C25.9921 39.0104 26.112 38.6952 26.329 38.4512C26.546 38.2071 26.845 38.0512 27.1693 38.013L27.3253 38.0037H32.6587ZM29.992 22.0037C31.6711 22.0037 33.3076 22.532 34.6697 23.5137C36.0318 24.4955 37.0505 25.881 37.5815 27.4739C38.1124 29.0668 38.1288 30.7863 37.6281 32.389C37.1275 33.9917 36.1353 35.3962 34.792 36.4037C34.6082 36.5417 34.3919 36.6299 34.164 36.6597L33.992 36.6703H25.992C25.7035 36.6703 25.4228 36.5768 25.192 36.4037C23.8488 35.3962 22.8565 33.9917 22.3559 32.389C21.8553 30.7863 21.8716 29.0668 22.4025 27.4739C22.9335 25.881 23.9522 24.4955 25.3143 23.5137C26.6765 22.532 28.313 22.0037 29.992 22.0037Z" fill="#275CBE"/>
</g>
<defs>
<clipPath id="clip0_153_261">
<rect width="32" height="32" fill="white" transform="translate(13.9922 14.0024)"/>
</clipPath>
</defs>
</svg>
