<svg width="58" height="58" viewBox="0 0 58 58" fill="none" xmlns="http://www.w3.org/2000/svg">
<circle cx="29.0917" cy="28.9826" r="28.8" fill="#C3F0FF"/>
<path d="M23.6589 42.3376C21.8145 42.3376 20.242 41.6873 18.9416 40.3869C17.6411 39.0865 16.9913 37.5145 16.9922 35.6709V23.6709C16.2589 23.6709 15.6309 23.4096 15.1082 22.8869C14.5856 22.3642 14.3247 21.7367 14.3256 21.0042V18.3376C14.3256 17.6042 14.5869 16.9762 15.1096 16.4536C15.6322 15.9309 16.2598 15.67 16.9922 15.6709H30.3256C31.0589 15.6709 31.6869 15.9322 32.2096 16.4549C32.7322 16.9776 32.9931 17.6051 32.9922 18.3376V21.0042C32.9922 21.7376 32.7309 22.3656 32.2082 22.8882C31.6856 23.4109 31.058 23.6718 30.3256 23.6709V27.7042C29.3922 28.3042 28.5976 29.0545 27.9416 29.9549C27.2856 30.8553 26.8247 31.8718 26.5589 33.0042H23.6589V30.3376H27.6589V29.0042H23.6589V26.3376H27.6589V23.6709H19.6589V35.6709C19.6589 36.782 20.0478 37.7265 20.8256 38.5042C21.6033 39.282 22.5478 39.6709 23.6589 39.6709C24.3256 39.6709 24.9367 39.5265 25.4922 39.2376C26.0478 38.9487 26.5145 38.5487 26.8922 38.0376C27.07 38.482 27.27 38.9042 27.4922 39.3042C27.7145 39.7042 27.9811 40.0931 28.2922 40.4709C27.6922 41.0487 26.9976 41.5042 26.2082 41.8376C25.4189 42.1709 24.5691 42.3376 23.6589 42.3376ZM23.6589 37.0042V34.3376H26.3589C26.3145 34.782 26.3087 35.2265 26.3416 35.6709C26.3745 36.1153 26.4469 36.5598 26.5589 37.0042H23.6589ZM34.9922 38.3376C35.9256 38.3376 36.7145 38.0153 37.3589 37.3709C38.0033 36.7265 38.3256 35.9376 38.3256 35.0042C38.3256 34.0709 38.0033 33.282 37.3589 32.6376C36.7145 31.9931 35.9256 31.6709 34.9922 31.6709C34.0589 31.6709 33.27 31.9931 32.6256 32.6376C31.9811 33.282 31.6589 34.0709 31.6589 35.0042C31.6589 35.9376 31.9811 36.7265 32.6256 37.3709C33.27 38.0153 34.0589 38.3376 34.9922 38.3376ZM41.7922 43.6709L38.1922 40.0709C37.7033 40.382 37.1922 40.6153 36.6589 40.7709C36.1256 40.9265 35.57 41.0042 34.9922 41.0042C33.3256 41.0042 31.9091 40.4207 30.7429 39.2536C29.5767 38.0865 28.9931 36.67 28.9922 35.0042C28.9922 33.3376 29.5758 31.9207 30.7429 30.7536C31.91 29.5865 33.3265 29.0033 34.9922 29.0042C36.6589 29.0042 38.0758 29.5878 39.2429 30.7549C40.41 31.922 40.9931 33.3385 40.9922 35.0042C40.9922 35.582 40.9145 36.1376 40.7589 36.6709C40.6033 37.2042 40.37 37.7153 40.0589 38.2042L43.6589 41.8042L41.7922 43.6709Z" fill="#275CBE"/>
</svg>
