<svg width="59" height="58" viewBox="0 0 59 58" fill="none" xmlns="http://www.w3.org/2000/svg">
<circle cx="29.4135" cy="28.9826" r="28.8" fill="#C3F0FF"/>
<path d="M37.3256 38.3376H43.3256M43.3256 38.3376L39.9923 35.0042M43.3256 38.3376L39.9923 41.6709M29.9923 15.6709L26.6589 19.0042L29.9923 22.3376" stroke="#005EC5" stroke-width="3" stroke-linecap="round" stroke-linejoin="round"/>
<path d="M27.9923 19.0029C30.6444 19.0029 33.188 20.0565 35.0633 21.9319C36.9387 23.8072 37.9923 26.3508 37.9923 29.0029C37.9923 31.6551 36.9387 34.1986 35.0633 36.074C33.188 37.9494 30.6444 39.0029 27.9923 39.0029H16.6589" stroke="#005EC5" stroke-width="3" stroke-linecap="round" stroke-linejoin="round"/>
<path d="M23.0002 20.3389C21.4773 21.2158 20.2125 22.4786 19.3333 24.0002C18.454 25.5218 17.9915 27.2482 17.9922 29.0055C17.9922 31.2562 18.7362 33.3335 19.9922 35.0055" stroke="#005EC5" stroke-width="3" stroke-linecap="round" stroke-linejoin="round"/>
</svg>
