<svg width="59" height="58" viewBox="0 0 59 58" fill="none" xmlns="http://www.w3.org/2000/svg">
<circle cx="29.7355" cy="28.9826" r="28.8" fill="#C3F0FF"/>
<path d="M31.1054 17.2185C31.1796 17.1622 31.2456 17.0958 31.3014 17.0212H34.7174C34.975 17.0073 35.2332 17.0073 35.4908 17.0212H35.5414C36.3004 17.019 37.0503 17.1867 37.7361 17.5118C38.9889 18.0033 40.0726 18.8471 40.8561 19.9412C41.4492 20.7697 41.8526 21.7185 42.0379 22.7204C42.2232 23.7223 42.1857 24.7527 41.9281 25.7385L37.5534 21.4225C37.3662 21.2379 37.1137 21.1344 36.8508 21.1345H30.4841C30.2798 21.1428 30.083 21.2136 29.9201 21.3372L27.4081 23.2412C27.2731 23.344 27.1192 23.4192 26.9551 23.4625C26.7911 23.5057 26.6201 23.5163 26.452 23.4935C26.2838 23.4707 26.1218 23.4151 25.9752 23.3297C25.8286 23.2443 25.7002 23.1308 25.5974 22.9958C25.4953 22.863 25.4204 22.7112 25.3772 22.5492C25.334 22.3872 25.3234 22.2183 25.3458 22.0522C25.3682 21.8861 25.4233 21.7261 25.508 21.5814C25.5926 21.4367 25.705 21.3102 25.8388 21.2092L31.1054 17.2185ZM24.5241 31.9838L24.5054 32.0012L23.2068 33.2918L23.1894 33.3078C22.962 33.5241 22.6593 33.6434 22.3455 33.6404C22.0317 33.6374 21.7314 33.5124 21.5081 33.2918C21.3966 33.1813 21.308 33.0497 21.2476 32.9047C21.1872 32.7598 21.1561 32.6042 21.1561 32.4472C21.1561 32.2901 21.1872 32.1346 21.2476 31.9896C21.308 31.8447 21.3966 31.7131 21.5081 31.6025L22.8068 30.3118C23.033 30.0879 23.3384 29.9622 23.6568 29.9622C23.9751 29.9622 24.2806 30.0879 24.5068 30.3118C24.7291 30.5322 24.8556 30.8313 24.8589 31.1443C24.8621 31.4573 24.7418 31.7589 24.5241 31.9838ZM24.1361 34.2478C23.9184 34.4727 23.7981 34.7744 23.8013 35.0874C23.8046 35.4004 23.9311 35.6995 24.1534 35.9198C24.6228 36.3865 25.3841 36.3865 25.8534 35.9198L27.1521 34.6292C27.278 34.5043 27.3744 34.3529 27.4342 34.1861C27.494 34.0192 27.5158 33.841 27.4979 33.6646C27.48 33.4882 27.4229 33.3181 27.3308 33.1666C27.2387 33.0151 27.1138 32.8862 26.9654 32.7892C26.7376 32.6393 26.4658 32.5709 26.1942 32.5951C25.9226 32.6193 25.6671 32.7347 25.4694 32.9225L25.4521 32.9412L24.1534 34.2305L24.1361 34.2478ZM21.3254 28.2132C21.437 28.3238 21.5255 28.4553 21.5859 28.6003C21.6464 28.7453 21.6775 28.9008 21.6775 29.0578C21.6775 29.2149 21.6464 29.3704 21.5859 29.5154C21.5255 29.6604 21.437 29.7919 21.3254 29.9025L20.0268 31.1932C19.8005 31.4176 19.4948 31.5435 19.1761 31.5435C18.8574 31.5435 18.5517 31.4176 18.3254 31.1932C18.2139 31.0826 18.1253 30.951 18.0649 30.8061C18.0045 30.6611 17.9734 30.5056 17.9734 30.3485C17.9734 30.1914 18.0045 30.0359 18.0649 29.891C18.1253 29.746 18.2139 29.6144 18.3254 29.5038L19.6254 28.2132C19.8516 27.9892 20.1571 27.8635 20.4754 27.8635C20.7938 27.8635 21.0992 27.9892 21.3254 28.2132ZM29.7961 35.5692C29.9076 35.6798 29.9962 35.8113 30.0566 35.9563C30.117 36.1013 30.1481 36.2568 30.1481 36.4138C30.1481 36.5709 30.117 36.7264 30.0566 36.8714C29.9962 37.0164 29.9076 37.1479 29.7961 37.2585L28.4974 38.5492C28.2712 38.7732 27.9658 38.8988 27.6474 38.8988C27.3291 38.8988 27.0236 38.7732 26.7974 38.5492C26.6203 38.3736 26.5029 38.1468 26.4617 37.9008C26.4206 37.6549 26.4578 37.4022 26.5681 37.1785L26.5694 37.1758C26.6276 37.0587 26.7046 36.952 26.7974 36.8598L28.0961 35.5692C28.3223 35.3452 28.6278 35.2195 28.9461 35.2195C29.2644 35.2195 29.5699 35.3452 29.7961 35.5692ZM21.1174 19.4438C22.0027 18.5643 23.0763 17.8974 24.257 17.4934C25.4378 17.0894 26.6949 16.9589 27.9334 17.1118L24.6321 19.6145C24.2882 19.8747 23.9992 20.2003 23.7817 20.5726C23.5642 20.9449 23.4225 21.3566 23.3647 21.7839C23.307 22.2112 23.3343 22.6457 23.4452 23.0624C23.5561 23.4791 23.7483 23.8697 24.0108 24.2118C24.5407 24.9026 25.3223 25.3557 26.1851 25.4724C27.0479 25.589 27.9218 25.3597 28.6161 24.8345L30.8614 23.1345H36.4414L41.1174 27.7478C41.1325 27.7665 41.1485 27.7843 41.1654 27.8012L42.6988 29.3345C43.0437 29.6842 43.2413 30.1529 43.251 30.644C43.2607 31.1352 43.0816 31.6113 42.7507 31.9743C42.4198 32.3373 41.9623 32.5596 41.4724 32.5954C40.9825 32.6311 40.4975 32.4776 40.1174 32.1665L39.9894 32.0385C39.9646 32.0133 39.9379 31.9901 39.9094 31.9692L38.4521 30.5132C38.3906 30.4495 38.317 30.3987 38.2357 30.3638C38.1544 30.3288 38.0669 30.3104 37.9784 30.3097C37.8898 30.3089 37.8021 30.3258 37.7201 30.3593C37.6382 30.3928 37.5638 30.4423 37.5012 30.5049C37.4386 30.5675 37.3891 30.6419 37.3556 30.7239C37.322 30.8058 37.3052 30.8936 37.3059 30.9821C37.3067 31.0706 37.3251 31.1581 37.36 31.2394C37.395 31.3208 37.4458 31.3943 37.5094 31.4558L39.0428 32.9892C39.0988 33.0438 39.1548 33.0972 39.2134 33.1478L39.2721 33.2065C39.4005 33.3322 39.5027 33.482 39.5728 33.6475C39.6429 33.8129 39.6795 33.9906 39.6804 34.1702C39.6814 34.3499 39.6467 34.5279 39.5784 34.6941C39.5101 34.8602 39.4095 35.0112 39.2825 35.1383C39.1555 35.2653 39.0045 35.3659 38.8383 35.4342C38.6722 35.5025 38.4941 35.5371 38.3145 35.5362C38.1348 35.5352 37.9571 35.4986 37.7917 35.4285C37.6263 35.3584 37.4764 35.2562 37.3508 35.1278L37.1241 34.9025C37.0301 34.8087 36.9102 34.7452 36.7798 34.72C36.6494 34.6948 36.5145 34.7091 36.3923 34.7611C36.2701 34.8131 36.1662 34.9004 36.094 35.0118C36.0217 35.1233 35.9844 35.2537 35.9868 35.3865C35.9847 35.4767 36.001 35.5664 36.0347 35.65C36.0684 35.7337 36.1188 35.8096 36.1828 35.8732L36.4801 36.1705C36.6026 36.2859 36.7008 36.4247 36.7686 36.5787C36.8365 36.7327 36.8728 36.8987 36.8754 37.067C36.8779 37.2353 36.8466 37.4024 36.7834 37.5583C36.7202 37.7143 36.6262 37.856 36.5072 37.975C36.3882 38.094 36.2466 38.1879 36.0906 38.2511C35.9346 38.3144 35.7675 38.3456 35.5993 38.3431C35.431 38.3406 35.2649 38.3043 35.1109 38.2364C34.9569 38.1685 34.8181 38.0704 34.7028 37.9478H34.7014L34.6854 37.9305L34.4054 37.6505C34.3438 37.5881 34.2704 37.5386 34.1895 37.5048C34.1086 37.4711 34.0218 37.4536 33.9341 37.4536C33.8464 37.4536 33.7596 37.4711 33.6787 37.5048C33.5978 37.5386 33.5244 37.5881 33.4628 37.6505C33.3378 37.7755 33.2676 37.9451 33.2676 38.1218C33.2676 38.2986 33.3378 38.4682 33.4628 38.5932L33.7534 38.8852C33.8731 39.0034 33.9683 39.144 34.0337 39.299C34.099 39.454 34.1332 39.6203 34.1342 39.7885C34.1353 39.9567 34.1032 40.1235 34.0398 40.2793C33.9764 40.435 33.883 40.5768 33.7648 40.6965C33.6466 40.8162 33.506 40.9114 33.351 40.9768C33.196 41.0421 33.0296 41.0763 32.8614 41.0773C32.6932 41.0784 32.5265 41.0463 32.3707 40.9829C32.2149 40.9195 32.0731 40.826 31.9534 40.7078L30.0454 38.8945L30.7454 38.1985C30.9812 37.9649 31.1684 37.687 31.2961 37.3807C31.4239 37.0743 31.4896 36.7457 31.4896 36.4138C31.4896 36.082 31.4239 35.7534 31.2961 35.447C31.1684 35.1407 30.9812 34.8627 30.7454 34.6292C30.496 34.3814 30.1979 34.1881 29.8699 34.0614C29.542 33.9348 29.1913 33.8775 28.8401 33.8932C28.8556 33.5433 28.7976 33.1941 28.6699 32.868C28.5422 32.5419 28.3477 32.2462 28.0988 31.9998C27.8495 31.7522 27.5516 31.559 27.2239 31.4323C26.8962 31.3056 26.5458 31.2482 26.1948 31.2638C26.2101 30.9142 26.1521 30.5652 26.0244 30.2394C25.8967 29.9135 25.7022 29.618 25.4534 29.3718C25.1365 29.0575 24.7426 28.8319 24.3112 28.7175C23.8797 28.6031 23.4258 28.6039 22.9948 28.7198C22.9207 28.1712 22.667 27.6625 22.2734 27.2732C21.8348 26.8384 21.2534 26.5774 20.637 26.5387C20.0206 26.5 19.4111 26.6861 18.9214 27.0625C18.6065 25.7108 18.643 24.3009 19.0274 22.9672C19.4118 21.6336 20.1314 20.4206 21.1174 19.4438Z" fill="#275CBE"/>
</svg>
