<svg width="1385" height="174" viewBox="0 0 1385 174" fill="none" xmlns="http://www.w3.org/2000/svg">
<path opacity="0.4" d="M86.9899 173.527C58.8603 173.527 37.4683 166.452 22.814 152.303C8.15966 137.986 0.832489 117.857 0.832489 91.9171C0.832489 64.7982 8.3281 43.6589 23.3193 28.4992C38.3105 13.3396 60.3762 5.75975 89.5165 5.75975C99.4545 5.75975 108.382 6.34929 116.299 7.52838C124.384 8.70746 132.048 10.4761 139.291 12.8343V47.7015C132.048 45.0064 124.468 43.1536 116.551 42.1429C108.803 41.1323 100.802 40.627 92.5484 40.627C75.0306 40.627 62.2291 44.838 54.1439 53.26C46.2272 61.5136 42.2689 74.3993 42.2689 91.9171C42.2689 107.919 46.0588 119.794 53.6386 127.542C61.2185 135.122 72.4198 138.912 87.2425 138.912C97.0121 138.912 106.108 137.565 114.53 134.869V104.045H79.41V78.5261H148.639V159.125C142.912 162.831 134.911 166.199 124.636 169.231C114.53 172.095 101.981 173.527 86.9899 173.527ZM261.403 171V39.6163H213.65V8.28635H349.834V39.6163H302.081V171H261.403ZM388.961 173.527C381.381 173.527 374.307 172.179 367.738 169.484C361.337 166.789 356.199 162.662 352.325 157.104C348.451 151.377 346.514 144.302 346.514 135.88C346.514 123.584 350.641 113.983 358.894 107.077C367.316 100.002 379.865 96.465 396.541 96.465H429.892V93.6858C429.892 87.6219 427.871 83.3267 423.828 80.8C419.786 78.105 412.206 76.7575 401.089 76.7575C387.445 76.7575 374.054 78.863 360.916 83.074V56.7973C366.811 54.4391 373.97 52.502 382.392 50.9861C390.982 49.4701 399.994 48.7121 409.427 48.7121C427.955 48.7121 442.441 52.502 452.884 60.0819C463.496 67.6617 468.802 79.7052 468.802 96.2124V171H433.177L431.155 160.894C426.776 164.936 421.133 168.052 414.227 170.242C407.49 172.432 399.068 173.527 388.961 173.527ZM401.847 148.513C408.248 148.513 413.806 147.418 418.522 145.229C423.239 143.039 427.029 140.26 429.892 136.891V119.962H401.089C389.13 119.962 383.15 124.763 383.15 134.364C383.15 138.744 384.666 142.197 387.698 144.723C390.73 147.25 395.446 148.513 401.847 148.513ZM530.084 173.527C516.946 173.527 507.513 170.663 501.786 164.936C496.059 159.209 493.196 150.029 493.196 137.396V0.706534H533.874V133.354C533.874 137.228 534.632 139.923 536.148 141.439C537.832 142.786 540.275 143.46 543.475 143.46C548.023 143.46 552.066 142.87 555.603 141.691V169.231C551.729 170.747 547.855 171.842 543.98 172.516C540.275 173.19 535.643 173.527 530.084 173.527ZM635.094 173.527C614.208 173.527 597.448 168.389 584.815 158.114C572.182 147.671 565.865 132.006 565.865 111.119C565.865 92.0856 571.087 76.9259 581.53 65.6404C591.973 54.3549 607.638 48.7121 628.525 48.7121C647.559 48.7121 662.297 53.5969 672.741 63.3664C683.184 73.136 688.406 86.2744 688.406 102.782V124.258H603.512C605.365 132.174 609.66 137.733 616.397 140.933C623.303 143.965 632.652 145.481 644.443 145.481C651.012 145.481 657.665 144.892 664.403 143.713C671.309 142.534 677.036 141.018 681.584 139.165V165.694C675.857 168.389 669.035 170.326 661.118 171.505C653.202 172.853 644.527 173.527 635.094 173.527ZM603.512 100.76H653.033V95.4544C653.033 89.559 651.265 84.9268 647.727 81.558C644.19 78.0208 638.21 76.2521 629.788 76.2521C620.019 76.2521 613.197 78.2734 609.323 82.316C605.449 86.1901 603.512 92.3382 603.512 100.76ZM709.092 171V51.2387H746.992L748.255 61.5978C753.14 58.229 759.288 55.2813 766.699 52.7547C774.11 50.0596 782.027 48.7121 790.449 48.7121C805.946 48.7121 817.231 52.4178 824.306 59.8292C831.38 67.2406 834.918 78.6945 834.918 94.1911V171H794.239V97.4757C794.239 90.738 792.807 85.9375 789.944 83.074C787.08 80.2105 781.943 78.7788 774.532 78.7788C770.152 78.7788 765.688 79.7894 761.141 81.8107C756.593 83.832 752.803 86.3586 749.771 89.3905V171H709.092ZM908.625 173.527C893.803 173.527 882.854 169.737 875.779 162.157C868.873 154.577 865.42 144.134 865.42 130.827V82.0633H849.25V51.2387H865.42V26.2253L906.099 15.3609V51.2387H935.155L933.386 82.0633H906.099V128.048C906.099 133.775 907.531 137.817 910.394 140.175C913.258 142.365 917.553 143.46 923.28 143.46C928.165 143.46 933.134 142.618 938.187 140.933V168.473C930.27 171.842 920.416 173.527 908.625 173.527ZM1008.14 171V8.28635H1088.23C1101.2 8.28635 1111.9 10.8972 1120.32 16.1188C1128.74 21.1721 1134.98 28.0781 1139.02 36.837C1143.23 45.596 1145.34 55.4497 1145.34 66.3984C1145.34 77.5155 1142.98 87.3692 1138.26 95.9597C1133.54 104.55 1126.81 111.288 1118.05 116.173C1109.46 120.889 1099.18 123.247 1087.22 123.247H1048.82V171H1008.14ZM1048.82 91.9171H1078.13C1086.72 91.9171 1093.12 89.559 1097.33 84.8426C1101.71 80.1263 1103.9 73.894 1103.9 66.1457C1103.9 57.7237 1101.88 51.2387 1097.83 46.6908C1093.96 41.9745 1087.81 39.6163 1079.39 39.6163H1048.82V91.9171ZM1161.37 171V51.2387H1200.02L1201.29 62.3558C1206.51 59.1554 1212.99 56.2919 1220.74 53.7653C1228.49 51.0703 1236.24 49.3859 1243.99 48.7121V79.2841C1239.61 79.7894 1234.72 80.6316 1229.33 81.8107C1224.11 82.8213 1219.06 84.0846 1214.17 85.6006C1209.46 87.1166 1205.41 88.7168 1202.04 90.4012V171H1161.37ZM1316.79 173.527C1293.72 173.527 1276.7 168.221 1265.76 157.609C1254.81 146.829 1249.33 131.332 1249.33 111.119C1249.33 91.0749 1254.81 75.6626 1265.76 64.8824C1276.87 54.1022 1293.89 48.7121 1316.79 48.7121C1339.87 48.7121 1356.88 54.1022 1367.83 64.8824C1378.95 75.6626 1384.51 91.0749 1384.51 111.119C1384.51 131.332 1379.03 146.829 1368.08 157.609C1357.13 168.221 1340.04 173.527 1316.79 173.527ZM1316.79 141.691C1326.23 141.691 1332.96 139.333 1337.01 134.617C1341.05 129.9 1343.07 122.068 1343.07 111.119C1343.07 100.171 1341.05 92.3382 1337.01 87.6219C1332.96 82.9056 1326.23 80.5474 1316.79 80.5474C1307.53 80.5474 1300.88 82.9056 1296.83 87.6219C1292.79 92.3382 1290.77 100.171 1290.77 111.119C1290.77 122.068 1292.79 129.9 1296.83 134.617C1300.88 139.333 1307.53 141.691 1316.79 141.691Z" fill="url(#paint0_linear_185_2032)"/>
<defs>
<linearGradient id="paint0_linear_185_2032" x1="710.913" y1="24" x2="710.913" y2="139" gradientUnits="userSpaceOnUse">
<stop stop-color="white"/>
<stop offset="1" stop-color="white" stop-opacity="0"/>
</linearGradient>
</defs>
</svg>
