<svg width="140" height="157" viewBox="0 0 140 157" fill="none" xmlns="http://www.w3.org/2000/svg">
<rect y="17" width="140" height="140" rx="25" fill="url(#paint0_linear_1_931)"/>
<path d="M84.5833 89.9169H96.25V107.417C96.25 110.639 93.6384 113.25 90.4167 113.25M84.5833 89.9169V107.417C84.5833 110.639 87.1949 113.25 90.4167 113.25M84.5833 89.9169V68.7918C84.5833 66.1511 84.5833 64.8307 84.0286 64.065C83.5447 63.3971 82.8007 62.9653 81.9805 62.8765C81.0405 62.7747 79.8942 63.4298 77.6014 64.74L76.6903 65.2606C75.8465 65.7428 75.4244 65.9839 74.9764 66.0783C74.5797 66.1619 74.1703 66.1619 73.7736 66.0783C73.3256 65.9839 72.9035 65.7428 72.0597 65.2606L66.4819 62.0733C65.6381 61.5911 65.2161 61.35 64.7681 61.2555C64.3714 61.172 63.9619 61.172 63.5653 61.2555C63.1172 61.35 62.6953 61.5911 61.8514 62.0733L56.2736 65.2606C55.4297 65.7428 55.0078 65.9839 54.5597 66.0783C54.1631 66.1619 53.7535 66.1619 53.357 66.0783C52.9089 65.9839 52.4869 65.7428 51.643 65.2606L50.732 64.74C48.4392 63.4298 47.2928 62.7747 46.3527 62.8765C45.5328 62.9653 44.7887 63.3971 44.3048 64.065C43.75 64.8307 43.75 66.1511 43.75 68.7918V99.2503C43.75 104.151 43.75 106.601 44.7037 108.473C45.5426 110.119 46.8812 111.458 48.5276 112.297C50.3993 113.25 52.8495 113.25 57.75 113.25H90.4167M55.4167 89.9169H61.25M55.4167 78.2503H72.9167M55.4167 101.584H61.25M72.9167 101.584H72.9458M72.9167 89.9169H72.9458" stroke="white" stroke-width="4" stroke-linecap="round" stroke-linejoin="round"/>
<circle cx="43.5" cy="16.4999" r="13.5" transform="rotate(-14.8176 43.5 16.4999)" fill="#242A36"/>
<path d="M46.7735 20.0305C46.8458 20.3038 47.025 20.4284 47.311 20.4043L49.0755 20.2472L49.4008 21.4769L41.7328 23.5054L41.4075 22.2757L43.3983 21.4136C43.5387 21.3592 43.6305 21.2834 43.6735 21.186C43.7326 21.0843 43.743 20.9612 43.7048 20.8165L41.7656 13.4861C41.5972 13.565 41.3807 13.6567 41.1159 13.7611C40.8511 13.8656 40.5783 13.9722 40.2975 14.0808C40.0124 14.1735 39.7573 14.2496 39.5322 14.3091L38.9707 13.0644C39.4072 12.8285 39.8549 12.5381 40.3141 12.193C40.7689 11.8319 41.1874 11.4631 41.5695 11.0869C41.9516 10.7106 42.2474 10.3657 42.4568 10.0523L44.0944 9.90292L46.7735 20.0305Z" fill="white"/>
<defs>
<linearGradient id="paint0_linear_1_931" x1="128" y1="17" x2="12.5" y2="157" gradientUnits="userSpaceOnUse">
<stop stop-color="#7ECB97"/>
<stop offset="0.755208" stop-color="#5077C2"/>
</linearGradient>
</defs>
</svg>
