<svg width="140" height="152" viewBox="0 0 140 152" fill="none" xmlns="http://www.w3.org/2000/svg">
<path fill-rule="evenodd" clip-rule="evenodd" d="M72.973 19.0281C71.4933 19.9466 69.6003 19.9299 68.1369 18.9855C51.2622 8.09453 28.5154 9.92131 13.5894 24.5865C-1.33655 39.2517 -3.56392 61.9628 7.02797 79.0268C7.94645 80.5066 7.92977 82.3996 6.98536 83.8629C-3.90546 100.738 -2.07863 123.484 12.5865 138.41C27.2516 153.336 49.9626 155.564 67.0267 144.972C68.5064 144.053 70.3994 144.07 71.8627 145.014C88.7374 155.905 111.484 154.078 126.41 139.413C141.336 124.748 143.563 102.037 132.972 84.9732C132.053 83.4935 132.07 81.6004 133.014 80.1371C143.905 63.2624 142.079 40.5156 127.413 25.5896C112.748 10.6637 90.0371 8.43628 72.973 19.0281Z" fill="url(#paint0_linear_1_932)"/>
<path d="M43.75 67.4167C43.75 60.9733 48.9733 55.75 55.4167 55.75H84.5833C91.0265 55.75 96.25 60.9733 96.25 67.4167V96.5833C96.25 103.027 91.0265 108.25 84.5833 108.25H55.4167C48.9733 108.25 43.75 103.027 43.75 96.5833V67.4167Z" stroke="white" stroke-width="4"/>
<path d="M82.4655 79.4849C83.6045 78.346 83.6045 76.4991 82.4655 75.3602L77.24 70.1347C76.1011 68.9956 74.2542 68.9957 73.1153 70.1347L61.1364 82.1134L59.3474 92.9307C59.3148 93.1282 59.4859 93.2991 59.6832 93.2662L70.4868 91.464L82.4655 79.4849Z" stroke="white" stroke-width="4"/>
<circle cx="82.5331" cy="16.533" r="13.5" transform="rotate(14.9938 82.5331 16.533)" fill="#242A36"/>
<path d="M81.6083 19.5904C81.8539 19.6561 82.1304 19.7224 82.4377 19.7893C82.7633 19.8455 83.0495 19.8757 83.2961 19.8798C83.51 19.8906 83.6536 19.8749 83.7269 19.8326C83.8001 19.7903 83.872 19.7244 83.9424 19.6348L85.1031 18.2501L86.5087 18.8124C86.3501 19.4048 86.1509 20.0328 85.9112 20.6964C85.6754 21.3455 85.4281 21.9219 85.1694 22.4255L77.4103 20.3474L77.2849 18.7344C78.4003 18.2124 79.3532 17.7476 80.1438 17.3399C80.9487 16.9361 81.6135 16.5645 82.138 16.2249C82.6626 15.8854 83.0691 15.5529 83.3575 15.2276C83.6459 14.9022 83.8405 14.5517 83.9411 14.1761C84.0765 13.6704 84.0332 13.2252 83.811 12.8405C83.6033 12.4597 83.2683 12.2074 82.8059 12.0836C82.3869 11.9713 81.9639 11.9896 81.5369 12.1385C81.1137 12.273 80.7454 12.4917 80.4319 12.7949L79.791 12.0658C80.0248 11.54 80.3711 11.114 80.8301 10.7879C81.2891 10.4618 81.8241 10.2566 82.4351 10.1725C83.0499 10.0739 83.6752 10.1098 84.311 10.2801C85.3802 10.5664 86.1861 11.0843 86.7287 11.8335C87.2752 12.5683 87.4072 13.463 87.1247 14.5178C86.9274 15.2546 86.5138 15.9026 85.884 16.4617C85.2542 17.0208 84.3585 17.532 83.197 17.9951C82.0354 18.4582 80.5564 18.9215 78.7598 19.3849L78.9208 18.8706L81.6083 19.5904Z" fill="white"/>
<defs>
<linearGradient id="paint0_linear_1_932" x1="36" y1="24" x2="124.5" y2="152" gradientUnits="userSpaceOnUse">
<stop stop-color="#7ECB97"/>
<stop offset="0.755208" stop-color="#5077C2"/>
</linearGradient>
</defs>
</svg>
