<svg width="140" height="147" viewBox="0 0 140 147" fill="none" xmlns="http://www.w3.org/2000/svg">
<ellipse cx="70" cy="80.1957" rx="70" ry="66.1957" fill="url(#paint0_linear_1_933)"/>
<path fill-rule="evenodd" clip-rule="evenodd" d="M54.698 99.291C52.3289 99.6992 49.8977 99.0818 48.0107 97.5925C46.1236 96.1028 44.9583 93.8816 44.8052 91.4826V65.6993C44.695 62.9938 46.3406 60.5254 48.8804 59.5865C56.3402 56.8489 64.7152 58.9456 70.005 64.8749V101.671C66.459 98.6898 60.332 98.5098 54.698 99.291Z" stroke="white" stroke-width="4" stroke-linecap="round" stroke-linejoin="round"/>
<path fill-rule="evenodd" clip-rule="evenodd" d="M85.3122 99.291C87.6814 99.6992 90.1128 99.0818 91.9996 97.5925C93.8867 96.1028 95.052 93.8816 95.205 91.4826V65.6993C95.3156 62.9938 93.67 60.5254 91.1298 59.5865C83.6703 56.8489 75.2952 58.9456 70.005 64.8749V101.671C73.551 98.6898 79.6782 98.5098 85.3122 99.291Z" stroke="white" stroke-width="4" stroke-linecap="round" stroke-linejoin="round"/>
<path d="M60.8927 77.1071C62.402 77.1071 63.6249 76.2437 63.6249 75.1786C63.6249 74.1135 62.402 73.25 60.8927 73.25V77.1071ZM53.6072 73.25C52.0982 73.25 50.875 74.1135 50.875 75.1786C50.875 76.2437 52.0982 77.1071 53.6072 77.1071V73.25ZM60.8927 82.25C62.402 82.25 63.6249 81.3865 63.6249 80.3214C63.6249 79.2563 62.402 78.3929 60.8927 78.3929V82.25ZM53.6072 78.3929C52.0982 78.3929 50.875 79.2563 50.875 80.3214C50.875 81.3865 52.0982 82.25 53.6072 82.25V78.3929ZM86.3928 77.1071C87.9021 77.1071 89.125 76.2437 89.125 75.1786C89.125 74.1135 87.9021 73.25 86.3928 73.25V77.1071ZM79.1071 73.25C77.5982 73.25 76.3749 74.1135 76.3749 75.1786C76.3749 76.2437 77.5982 77.1071 79.1071 77.1071V73.25ZM86.3928 82.25C87.9021 82.25 89.125 81.3865 89.125 80.3214C89.125 79.2563 87.9021 78.3929 86.3928 78.3929V82.25ZM79.1071 78.3929C77.5982 78.3929 76.3749 79.2563 76.3749 80.3214C76.3749 81.3865 77.5982 82.25 79.1071 82.25V78.3929ZM60.8927 73.25H53.6072V77.1071H60.8927V73.25ZM60.8927 78.3929H53.6072V82.25H60.8927V78.3929ZM86.3928 73.25H79.1071V77.1071H86.3928V73.25ZM86.3928 78.3929H79.1071V82.25H86.3928V78.3929Z" fill="white"/>
<circle cx="66.1031" cy="15.1031" r="13.5" transform="rotate(-7.28627 66.1031 15.1031)" fill="#242A36"/>
<path d="M65.9995 20.6612C64.9752 20.7921 64.1382 20.7157 63.4886 20.4319C62.8373 20.1343 62.3789 19.7837 62.1134 19.3803L62.6517 18.5708C62.9643 18.7848 63.3277 18.9499 63.7419 19.0663C64.1684 19.167 64.5991 19.1895 65.0341 19.1339C65.6235 19.0585 66.096 18.8499 66.4516 18.5082C66.8213 18.1646 66.9688 17.7013 66.8943 17.1183C66.8322 16.6324 66.6492 16.2608 66.3453 16.0034C66.0396 15.732 65.6298 15.594 65.1157 15.5892C64.9649 15.6367 64.7808 15.7025 64.5634 15.7868C64.3442 15.8571 64.1592 15.916 64.0084 15.9635L63.5646 14.8351C63.9591 14.6859 64.3351 14.5038 64.6927 14.2888C65.0503 14.0738 65.3315 13.8191 65.5363 13.5249C65.7552 13.2288 65.8407 12.8934 65.7927 12.5186C65.7519 12.1993 65.6051 11.9429 65.3521 11.7495C65.1132 11.5543 64.7763 11.4846 64.3413 11.5402C63.9203 11.594 63.5539 11.7396 63.2419 11.977C62.93 12.2144 62.6856 12.4785 62.5089 12.7691L61.7661 12.3139C61.82 11.9543 61.9799 11.5881 62.2461 11.2155C62.5262 10.8411 62.9056 10.5174 63.3841 10.2446C63.8609 9.95792 64.436 9.77151 65.1096 9.68539C66.0358 9.56697 66.8219 9.69219 67.4681 10.0611C68.1142 10.4299 68.4844 10.9822 68.5784 11.718C68.6352 12.1622 68.5744 12.5791 68.3961 12.9688C68.2177 13.3584 67.955 13.7024 67.6081 14.0007C67.2734 14.2833 66.8755 14.5176 66.4144 14.7036C66.902 14.613 67.395 14.6205 67.8934 14.7261C68.39 14.8178 68.8175 15.0382 69.176 15.3875C69.5466 15.721 69.7728 16.2071 69.8544 16.8456C69.9414 17.5258 69.8274 18.14 69.5124 18.6882C69.1957 19.2225 68.7314 19.6628 68.1196 20.0091C67.5061 20.3415 66.7994 20.5589 65.9995 20.6612Z" fill="white"/>
<defs>
<linearGradient id="paint0_linear_1_933" x1="70" y1="14" x2="76.8681" y2="139.123" gradientUnits="userSpaceOnUse">
<stop stop-color="#7ECB97"/>
<stop offset="0.755208" stop-color="#5077C2"/>
</linearGradient>
</defs>
</svg>
