<svg width="140" height="147" viewBox="0 0 140 147" fill="none" xmlns="http://www.w3.org/2000/svg">
<path d="M59.7956 14.2672C64.0324 5.91092 75.9675 5.91092 80.2044 14.2672C83.1861 20.148 90.5083 22.298 96.196 18.9628C104.278 14.2237 114.318 20.6763 113.365 29.9967C112.694 36.5559 117.691 42.3233 124.279 42.5926C133.641 42.9752 138.599 53.8318 132.758 61.1571C128.647 66.3123 129.733 73.866 135.129 77.6543C142.798 83.0372 141.099 94.8509 132.225 97.8554C125.98 99.9698 122.81 106.912 125.301 113.016C128.842 121.69 121.026 130.71 111.936 128.44C105.539 126.842 99.1196 130.968 97.9155 137.451C96.2045 146.662 84.7528 150.025 78.3334 143.201C73.8157 138.398 66.1843 138.398 61.6666 143.201C55.2471 150.025 43.7955 146.662 42.0845 137.451C40.8804 130.968 34.4605 126.842 28.0635 128.44C18.9737 130.71 11.1579 121.69 14.6986 113.016C17.1904 106.912 14.0202 99.9698 7.775 97.8554C-1.09919 94.8509 -2.79773 83.0372 4.87053 77.6543C10.2671 73.866 11.3532 66.3123 7.24247 61.1571C1.40137 53.8318 6.35938 42.9752 15.7206 42.5926C22.3085 42.3233 27.306 36.5559 26.635 29.9967C25.6815 20.6763 35.7219 14.2237 43.8039 18.9628C49.4917 22.298 56.8139 20.148 59.7956 14.2672Z" fill="url(#paint0_linear_1_934)"/>
<path d="M62.5 62L70 54.5M70 54.5L77.5 62M70 54.5V79.5M57.5006 72C55.1709 72 54.006 72 53.0871 72.3805C51.862 72.888 50.8881 73.862 50.3806 75.0873C50 76.006 50 77.1702 50 79.5V91.5C50 94.3002 50 95.6995 50.545 96.769C51.0243 97.7098 51.7887 98.4762 52.7295 98.9555C53.798 99.5 55.1975 99.5 57.9923 99.5H82.009C84.8037 99.5 86.2012 99.5 87.2697 98.9555C88.2105 98.4762 88.9762 97.7098 89.4555 96.769C90 95.7005 90 94.3025 90 91.5078V79.5C90 77.1702 89.9997 76.006 89.6192 75.0873C89.1117 73.862 88.1385 72.888 86.9135 72.3805C85.9945 72 84.8297 72 82.5 72" stroke="white" stroke-width="4" stroke-linecap="round" stroke-linejoin="round"/>
<circle cx="56.2614" cy="16.2614" r="13.5" transform="rotate(-13.4018 56.2614 16.2614)" fill="#242A36"/>
<path d="M51.6476 19.9088C52.1131 18.521 52.5275 17.1078 52.8908 15.6693C53.2683 14.2273 53.6022 12.7282 53.8923 11.1719L56.3231 10.5927L56.8238 10.9917C56.445 12.5541 56.0915 13.9077 55.7633 15.0524C55.446 16.1796 55.0827 17.145 54.6733 17.9485C54.2747 18.7345 53.7549 19.4217 53.1139 20.0101L52.6132 19.6111L60.9342 17.1778L61.3355 18.8623L52.4865 20.9707L51.6476 19.9088ZM56.825 18.5625L56.5616 15.9438L58.7487 15.2875L60.1407 21.1299L57.582 21.7396L56.825 18.5625Z" fill="white"/>
<defs>
<linearGradient id="paint0_linear_1_934" x1="140" y1="88" x2="4.75018" y2="66.284" gradientUnits="userSpaceOnUse">
<stop stop-color="#7ECB97"/>
<stop offset="0.755208" stop-color="#5077C2"/>
</linearGradient>
</defs>
</svg>
