<svg width="70" height="70" viewBox="0 0 70 70" fill="none" xmlns="http://www.w3.org/2000/svg">
<path d="M49.5833 37.9169H61.25V55.4169C61.25 58.6387 58.6384 61.2503 55.4167 61.2503M49.5833 37.9169V55.4169C49.5833 58.6387 52.1949 61.2503 55.4167 61.2503M49.5833 37.9169V16.7918C49.5833 14.1511 49.5833 12.8307 49.0286 12.065C48.5447 11.3971 47.8007 10.9653 46.9805 10.8765C46.0405 10.7747 44.8942 11.4298 42.6014 12.74L41.6903 13.2606C40.8465 13.7428 40.4244 13.9839 39.9764 14.0783C39.5797 14.1619 39.1703 14.1619 38.7736 14.0783C38.3256 13.9839 37.9035 13.7428 37.0597 13.2606L31.4819 10.0733C30.6381 9.59108 30.2161 9.34996 29.7681 9.25554C29.3714 9.17198 28.9619 9.17198 28.5653 9.25554C28.1172 9.34996 27.6953 9.59108 26.8514 10.0733L21.2736 13.2606C20.4297 13.7428 20.0078 13.9839 19.5597 14.0783C19.1631 14.1619 18.7535 14.1619 18.357 14.0783C17.9089 13.9839 17.4869 13.7428 16.643 13.2606L15.732 12.74C13.4392 11.4298 12.2928 10.7747 11.3527 10.8765C10.5328 10.9653 9.78865 11.3971 9.30475 12.065C8.75 12.8307 8.75 14.1511 8.75 16.7918V47.2503C8.75 52.1508 8.75 54.6008 9.70369 56.4728C10.5426 58.1192 11.8812 59.4577 13.5276 60.2965C15.3993 61.2503 17.8495 61.2503 22.75 61.2503H55.4167M20.4167 37.9169H26.25M20.4167 26.2503H37.9167M20.4167 49.5836H26.25M37.9167 49.5836H37.9458M37.9167 37.9169H37.9458" stroke="white" stroke-width="4" stroke-linecap="round" stroke-linejoin="round"/>
</svg>
