<svg width="90" height="90" viewBox="0 0 90 90" fill="none" xmlns="http://www.w3.org/2000/svg">
<path fill-rule="evenodd" clip-rule="evenodd" d="M29.6978 64.291C27.3287 64.6992 24.8975 64.0818 23.0105 62.5925C21.1234 61.1028 19.9581 58.8816 19.805 56.4826V30.6993C19.6948 27.9938 21.3404 25.5254 23.8802 24.5865C31.34 21.8489 39.715 23.9456 45.0048 29.8749V66.6706C41.4588 63.6898 35.3318 63.5098 29.6978 64.291Z" stroke="white" stroke-width="4" stroke-linecap="round" stroke-linejoin="round"/>
<path fill-rule="evenodd" clip-rule="evenodd" d="M60.3121 64.291C62.6812 64.6992 65.1127 64.0818 66.9994 62.5925C68.8866 61.1028 70.0519 58.8816 70.2049 56.4826V30.6993C70.3154 27.9938 68.6698 25.5254 66.1297 24.5865C58.6701 21.8489 50.2951 23.9456 45.0049 29.8749V66.6706C48.5509 63.6898 54.6781 63.5098 60.3121 64.291Z" stroke="white" stroke-width="4" stroke-linecap="round" stroke-linejoin="round"/>
<path d="M35.8927 42.1071C37.402 42.1071 38.6249 41.2437 38.6249 40.1786C38.6249 39.1135 37.402 38.25 35.8927 38.25V42.1071ZM28.6072 38.25C27.0982 38.25 25.875 39.1135 25.875 40.1786C25.875 41.2437 27.0982 42.1071 28.6072 42.1071V38.25ZM35.8927 47.25C37.402 47.25 38.6249 46.3865 38.6249 45.3214C38.6249 44.2563 37.402 43.3929 35.8927 43.3929V47.25ZM28.6072 43.3929C27.0982 43.3929 25.875 44.2563 25.875 45.3214C25.875 46.3865 27.0982 47.25 28.6072 47.25V43.3929ZM61.3928 42.1071C62.9021 42.1071 64.125 41.2437 64.125 40.1786C64.125 39.1135 62.9021 38.25 61.3928 38.25V42.1071ZM54.1071 38.25C52.5982 38.25 51.3749 39.1135 51.3749 40.1786C51.3749 41.2437 52.5982 42.1071 54.1071 42.1071V38.25ZM61.3928 47.25C62.9021 47.25 64.125 46.3865 64.125 45.3214C64.125 44.2563 62.9021 43.3929 61.3928 43.3929V47.25ZM54.1071 43.3929C52.5982 43.3929 51.3749 44.2563 51.3749 45.3214C51.3749 46.3865 52.5982 47.25 54.1071 47.25V43.3929ZM35.8927 38.25H28.6072V42.1071H35.8927V38.25ZM35.8927 43.3929H28.6072V47.25H35.8927V43.3929ZM61.3928 38.25H54.1071V42.1071H61.3928V38.25ZM61.3928 43.3929H54.1071V47.25H61.3928V43.3929Z" fill="white"/>
</svg>
