<svg width="70" height="70" viewBox="0 0 70 70" fill="none" xmlns="http://www.w3.org/2000/svg">
<path d="M8.75 20.4167C8.75 13.9733 13.9733 8.75 20.4167 8.75H49.5833C56.0265 8.75 61.25 13.9733 61.25 20.4167V49.5833C61.25 56.0265 56.0265 61.25 49.5833 61.25H20.4167C13.9733 61.25 8.75 56.0265 8.75 49.5833V20.4167Z" stroke="white" stroke-width="4"/>
<path d="M47.4654 32.4849C48.6044 31.346 48.6044 29.4991 47.4654 28.3602L42.2399 23.1347C41.101 21.9956 39.2541 21.9957 38.1152 23.1347L26.1363 35.1134L24.3473 45.9307C24.3147 46.1282 24.4858 46.2991 24.683 46.2662L35.4867 44.464L47.4654 32.4849Z" stroke="white" stroke-width="4"/>
</svg>
