<svg width="60" height="60" viewBox="0 0 60 60" fill="none" xmlns="http://www.w3.org/2000/svg">
<path d="M22.5 15L30 7.5M30 7.5L37.5 15M30 7.5V32.5M17.5006 25C15.1709 25 14.006 25 13.0871 25.3805C11.862 25.888 10.8881 26.862 10.3806 28.0873C10 29.006 10 30.1702 10 32.5V44.5C10 47.3002 10 48.6995 10.545 49.769C11.0243 50.7098 11.7887 51.4762 12.7295 51.9555C13.798 52.5 15.1975 52.5 17.9923 52.5H42.009C44.8037 52.5 46.2012 52.5 47.2697 51.9555C48.2105 51.4762 48.9762 50.7098 49.4555 49.769C50 48.7005 50 47.3025 50 44.5078V32.5C50 30.1702 49.9997 29.006 49.6192 28.0873C49.1117 26.862 48.1385 25.888 46.9135 25.3805C45.9945 25 44.8297 25 42.5 25" stroke="white" stroke-width="4" stroke-linecap="round" stroke-linejoin="round"/>
</svg>
