<svg width="33" height="33" viewBox="0 0 33 33" fill="none" xmlns="http://www.w3.org/2000/svg">
<circle cx="16.5002" cy="16.4999" r="13.5" transform="rotate(-14.8176 16.5002 16.4999)" fill="#242A36"/>
<path d="M19.7736 20.0305C19.8459 20.3038 20.0251 20.4284 20.3111 20.4043L22.0756 20.2472L22.4009 21.4769L14.7329 23.5054L14.4075 22.2757L16.3984 21.4136C16.5388 21.3592 16.6305 21.2834 16.6736 21.186C16.7327 21.0843 16.7431 20.9612 16.7048 20.8165L14.7656 13.4861C14.5973 13.565 14.3808 13.6567 14.116 13.7611C13.8512 13.8656 13.5784 13.9722 13.2975 14.0808C13.0124 14.1735 12.7573 14.2496 12.5323 14.3091L11.9708 13.0644C12.4072 12.8285 12.855 12.5381 13.3141 12.193C13.769 11.8319 14.1875 11.4631 14.5696 11.0869C14.9516 10.7106 15.2474 10.3657 15.4569 10.0523L17.0944 9.90292L19.7736 20.0305Z" fill="white"/>
</svg>
