<svg width="34" height="34" viewBox="0 0 34 34" fill="none" xmlns="http://www.w3.org/2000/svg">
<circle cx="16.5331" cy="16.533" r="13.5" transform="rotate(14.9938 16.5331 16.533)" fill="#242A36"/>
<path d="M15.6085 19.5904C15.8542 19.6561 16.1306 19.7224 16.4379 19.7893C16.7635 19.8455 17.0497 19.8757 17.2963 19.8798C17.5102 19.8906 17.6538 19.8749 17.7271 19.8326C17.8004 19.7903 17.8722 19.7244 17.9427 19.6348L19.1033 18.2501L20.509 18.8124C20.3503 19.4048 20.1511 20.0328 19.9115 20.6964C19.6757 21.3455 19.4284 21.9219 19.1696 22.4255L11.4106 20.3474L11.2851 18.7344C12.4005 18.2124 13.3534 17.7476 14.144 17.3399C14.949 16.9361 15.6137 16.5645 16.1383 16.2249C16.6628 15.8854 17.0693 15.5529 17.3577 15.2276C17.6462 14.9022 17.8407 14.5517 17.9413 14.1761C18.0768 13.6704 18.0334 13.2252 17.8112 12.8405C17.6035 12.4597 17.2685 12.2074 16.8061 12.0836C16.3871 11.9713 15.9641 11.9896 15.5371 12.1385C15.114 12.273 14.7456 12.4917 14.4322 12.7949L13.7912 12.0658C14.025 11.54 14.3714 11.114 14.8303 10.7879C15.2893 10.4618 15.8243 10.2566 16.4353 10.1725C17.0501 10.0739 17.6754 10.1098 18.3112 10.2801C19.3804 10.5664 20.1863 11.0843 20.729 11.8335C21.2754 12.5683 21.4074 13.463 21.125 14.5178C20.9276 15.2546 20.514 15.9026 19.8842 16.4617C19.2544 17.0208 18.3588 17.532 17.1972 17.9951C16.0356 18.4582 14.5566 18.9215 12.7601 19.3849L12.9211 18.8706L15.6085 19.5904Z" fill="white"/>
</svg>
