<svg width="31" height="31" viewBox="0 0 31 31" fill="none" xmlns="http://www.w3.org/2000/svg">
<circle cx="15.1032" cy="15.1031" r="13.5" transform="rotate(-7.28627 15.1032 15.1031)" fill="#242A36"/>
<path d="M14.9995 20.6612C13.9751 20.7921 13.1381 20.7157 12.4886 20.4319C11.8373 20.1343 11.3789 19.7837 11.1133 19.3803L11.6516 18.5708C11.9642 18.7848 12.3276 18.9499 12.7418 19.0663C13.1683 19.167 13.5991 19.1895 14.0341 19.1339C14.6234 19.0585 15.0959 18.8499 15.4516 18.5082C15.8212 18.1646 15.9688 17.7013 15.8942 17.1183C15.8321 16.6324 15.6491 16.2608 15.3452 16.0034C15.0396 15.732 14.6297 15.594 14.1157 15.5892C13.9649 15.6367 13.7807 15.7025 13.5633 15.7868C13.3441 15.8571 13.1591 15.916 13.0083 15.9635L12.5645 14.8351C12.9591 14.6859 13.3351 14.5038 13.6927 14.2888C14.0503 14.0738 14.3315 13.8191 14.5363 13.5249C14.7552 13.2288 14.8406 12.8934 14.7927 12.5186C14.7519 12.1993 14.605 11.9429 14.3521 11.7495C14.1132 11.5543 13.7763 11.4846 13.3412 11.5402C12.9203 11.594 12.5538 11.7396 12.2419 11.977C11.9299 12.2144 11.6856 12.4785 11.5088 12.7691L10.7661 12.3139C10.8199 11.9543 10.9799 11.5881 11.246 11.2155C11.5262 10.8411 11.9055 10.5174 12.3841 10.2446C12.8608 9.95792 13.436 9.77151 14.1096 9.68539C15.0357 9.56697 15.8219 9.69219 16.468 10.0611C17.1142 10.4299 17.4843 10.9822 17.5784 11.718C17.6352 12.1622 17.5744 12.5791 17.396 12.9688C17.2176 13.3584 16.955 13.7024 16.6081 14.0007C16.2734 14.2833 15.8755 14.5176 15.4144 14.7036C15.9019 14.613 16.3949 14.6205 16.8933 14.7261C17.39 14.8178 17.8175 15.0382 18.1759 15.3875C18.5466 15.721 18.7727 16.2071 18.8544 16.8456C18.9414 17.5258 18.8274 18.14 18.5124 18.6882C18.1956 19.2225 17.7314 19.6628 17.1196 20.0091C16.506 20.3415 15.7993 20.5589 14.9995 20.6612Z" fill="white"/>
</svg>
