<svg width="33" height="33" viewBox="0 0 33 33" fill="none" xmlns="http://www.w3.org/2000/svg">
<circle cx="16.2614" cy="16.2614" r="13.5" transform="rotate(-13.4018 16.2614 16.2614)" fill="#242A36"/>
<path d="M11.6476 19.9088C12.1131 18.521 12.5275 17.1078 12.8908 15.6693C13.2683 14.2273 13.6022 12.7282 13.8923 11.1719L16.3231 10.5927L16.8238 10.9917C16.445 12.5541 16.0915 13.9077 15.7633 15.0524C15.446 16.1796 15.0827 17.145 14.6733 17.9485C14.2747 18.7345 13.7549 19.4217 13.1139 20.0101L12.6132 19.6111L20.9342 17.1778L21.3355 18.8623L12.4865 20.9707L11.6476 19.9088ZM16.825 18.5625L16.5616 15.9438L18.7487 15.2875L20.1407 21.1299L17.582 21.7396L16.825 18.5625Z" fill="white"/>
</svg>
